<?xml version="1.0" encoding="UTF-8"?>
<!-- ================================================================
  NEO//GENESIS  —  Cyber Art Expo 2077
  8.5" x 11" vertical poster  (612 x 792 px @ 72dpi)
  Built for Adobe Illustrator: open, then File > Save As > .ai
  All <g id="..."> elements appear as named layers in the Layers panel.
================================================================= -->
<svg xmlns="http://www.w3.org/2000/svg"
     xmlns:xlink="http://www.w3.org/1999/xlink"
     width="8.5in" height="11in"
     viewBox="0 0 612 792"
     preserveAspectRatio="xMidYMid meet">

  <!-- =========================================================
       DEFINITIONS: gradients, patterns, filters, symbols
       ========================================================= -->
  <defs>

    <!-- Vertical background gradient: deep indigo → faint violet core → indigo -->
    <linearGradient id="bgGrad" x1="0" y1="0" x2="0" y2="1">
      <stop offset="0"    stop-color="#0A0014"/>
      <stop offset="0.45" stop-color="#140033"/>
      <stop offset="0.55" stop-color="#140033"/>
      <stop offset="1"    stop-color="#05000E"/>
    </linearGradient>

    <!-- Magenta-to-cyan neon gradient for title -->
    <linearGradient id="neonGrad" x1="0" y1="0" x2="1" y2="0">
      <stop offset="0"   stop-color="#FF006E"/>
      <stop offset="0.55" stop-color="#FF006E"/>
      <stop offset="1"   stop-color="#00F0FF"/>
    </linearGradient>

    <!-- Radial glow behind hero starburst -->
    <radialGradient id="sunGlow" cx="0.5" cy="0.5" r="0.6">
      <stop offset="0"   stop-color="#FF006E" stop-opacity="0.55"/>
      <stop offset="0.6" stop-color="#FF006E" stop-opacity="0.10"/>
      <stop offset="1"   stop-color="#FF006E" stop-opacity="0"/>
    </radialGradient>

    <!-- Horizon band gradient for grid backdrop -->
    <linearGradient id="horizonGrad" x1="0" y1="0" x2="0" y2="1">
      <stop offset="0" stop-color="#FF006E" stop-opacity="0"/>
      <stop offset="0.7" stop-color="#FF006E" stop-opacity="0.35"/>
      <stop offset="1" stop-color="#00F0FF" stop-opacity="0.25"/>
    </linearGradient>

    <!-- Soft neon glow filter (Illustrator-compatible) -->
    <filter id="neonGlow" x="-30%" y="-30%" width="160%" height="160%">
      <feGaussianBlur stdDeviation="3" result="blur"/>
      <feMerge>
        <feMergeNode in="blur"/>
        <feMergeNode in="blur"/>
        <feMergeNode in="SourceGraphic"/>
      </feMerge>
    </filter>

    <filter id="softGlow" x="-30%" y="-30%" width="160%" height="160%">
      <feGaussianBlur stdDeviation="6" result="blur"/>
      <feMerge>
        <feMergeNode in="blur"/>
        <feMergeNode in="SourceGraphic"/>
      </feMerge>
    </filter>

    <!-- Scanline pattern (assignment requires a pattern) -->
    <pattern id="scanlines" x="0" y="0" width="4" height="4" patternUnits="userSpaceOnUse">
      <rect width="4" height="4" fill="none"/>
      <line x1="0" y1="1" x2="4" y2="1" stroke="#00F0FF" stroke-width="0.6" stroke-opacity="0.10"/>
    </pattern>

    <!-- Small dot grid pattern (background texture) -->
    <pattern id="dotGrid" x="0" y="0" width="12" height="12" patternUnits="userSpaceOnUse">
      <circle cx="6" cy="6" r="0.7" fill="#FF006E" fill-opacity="0.25"/>
    </pattern>

    <!-- Cyber icon pattern built from 222 Cyber Y2K starburst (shape #111) -->
    <pattern id="iconPattern" x="0" y="0" width="60" height="60" patternUnits="userSpaceOnUse">
      <g transform="translate(15,15) scale(0.21)">
        <!-- Envato 222 Cyber Y2K Elements — shape 111.svg (starburst) -->
        <path d="M133.31,67.77c-6.01-4.11-7.87-12.28-4.25-18.6,4.1-7.13,3.46-15.55-1.67-21.98-5.13-6.43-13.19-8.93-21.05-6.52-6.96,2.13-14.51-1.5-17.19-8.28-3.02-7.65-10-12.4-18.22-12.4s-15.2,4.75-18.22,12.4c-2.67,6.77-10.22,10.41-17.19,8.28-7.86-2.41-15.93,.09-21.05,6.52-5.13,6.43-5.77,14.85-1.67,21.98,3.63,6.31,1.76,14.48-4.25,18.6C1.77,72.41-1.31,80.28,.52,88.29c1.83,8.01,8.01,13.76,16.14,15.01,7.2,1.1,12.42,7.65,11.9,14.92-.6,8.2,3.63,15.51,11.04,19.08,7.41,3.57,15.76,2.32,21.8-3.26,5.35-4.94,13.73-4.94,19.08,0,3.76,3.47,8.41,5.27,13.18,5.27,2.89,0,5.82-.66,8.62-2.01,7.41-3.57,11.64-10.88,11.04-19.08-.53-7.26,4.7-13.82,11.9-14.92,8.13-1.24,14.31-6.99,16.14-15.01,1.83-8.01-1.25-15.88-8.03-20.52Zm2.63,19.29c-1.03,4.51-4.61,9.7-11.58,10.77-10.04,1.53-17.32,10.67-16.58,20.79,.51,7.03-3.75,11.68-7.92,13.69-4.16,2.01-10.46,2.44-15.64-2.34-7.46-6.89-19.14-6.89-26.59,0-5.18,4.78-11.47,4.35-15.64,2.34-4.16-2.01-8.43-6.65-7.92-13.69,.74-10.12-6.54-19.26-16.58-20.79-6.97-1.06-10.55-6.26-11.58-10.77-1.03-4.51-.06-10.74,5.76-14.72,8.38-5.74,10.98-17.12,5.92-25.93-3.51-6.11-1.68-12.15,1.2-15.77,2.25-2.82,6.07-5.33,10.83-5.33,1.35,0,2.78,.2,4.27,.66,9.71,2.97,20.23-2.1,23.96-11.54,2.59-6.56,8.45-8.89,13.07-8.89s10.48,2.34,13.07,8.89c3.73,9.44,14.25,14.51,23.96,11.54,6.74-2.06,12.22,1.06,15.1,4.68,2.88,3.61,4.71,9.65,1.2,15.77-5.06,8.8-2.46,20.19,5.92,25.93,5.82,3.98,6.79,10.22,5.76,14.72Z"
              fill="#FF006E" fill-opacity="0.15"/>
      </g>
    </pattern>

    <!-- Reusable Envato shape symbols (from 222 Cyber Y2K Elements) -->
    <!-- Shape 111: flower / starburst -->
    <symbol id="starburst" viewBox="0 0 141.86 139.3">
      <path d="M133.31,67.77c-6.01-4.11-7.87-12.28-4.25-18.6,4.1-7.13,3.46-15.55-1.67-21.98-5.13-6.43-13.19-8.93-21.05-6.52-6.96,2.13-14.51-1.5-17.19-8.28-3.02-7.65-10-12.4-18.22-12.4s-15.2,4.75-18.22,12.4c-2.67,6.77-10.22,10.41-17.19,8.28-7.86-2.41-15.93,.09-21.05,6.52-5.13,6.43-5.77,14.85-1.67,21.98,3.63,6.31,1.76,14.48-4.25,18.6C1.77,72.41-1.31,80.28,.52,88.29c1.83,8.01,8.01,13.76,16.14,15.01,7.2,1.1,12.42,7.65,11.9,14.92-.6,8.2,3.63,15.51,11.04,19.08,7.41,3.57,15.76,2.32,21.8-3.26,5.35-4.94,13.73-4.94,19.08,0,3.76,3.47,8.41,5.27,13.18,5.27,2.89,0,5.82-.66,8.62-2.01,7.41-3.57,11.64-10.88,11.04-19.08-.53-7.26,4.7-13.82,11.9-14.92,8.13-1.24,14.31-6.99,16.14-15.01,1.83-8.01-1.25-15.88-8.03-20.52Zm2.63,19.29c-1.03,4.51-4.61,9.7-11.58,10.77-10.04,1.53-17.32,10.67-16.58,20.79,.51,7.03-3.75,11.68-7.92,13.69-4.16,2.01-10.46,2.44-15.64-2.34-7.46-6.89-19.14-6.89-26.59,0-5.18,4.78-11.47,4.35-15.64,2.34-4.16-2.01-8.43-6.65-7.92-13.69,.74-10.12-6.54-19.26-16.58-20.79-6.97-1.06-10.55-6.26-11.58-10.77-1.03-4.51-.06-10.74,5.76-14.72,8.38-5.74,10.98-17.12,5.92-25.93-3.51-6.11-1.68-12.15,1.2-15.77,2.25-2.82,6.07-5.33,10.83-5.33,1.35,0,2.78,.2,4.27,.66,9.71,2.97,20.23-2.1,23.96-11.54,2.59-6.56,8.45-8.89,13.07-8.89s10.48,2.34,13.07,8.89c3.73,9.44,14.25,14.51,23.96,11.54,6.74-2.06,12.22,1.06,15.1,4.68,2.88,3.61,4.71,9.65,1.2,15.77-5.06,8.8-2.46,20.19,5.92,25.93,5.82,3.98,6.79,10.22,5.76,14.72Z"/>
    </symbol>

    <!-- Shape 75: double arrow / infinity cursor -->
    <symbol id="shape75" viewBox="0 0 131.45 131.45">
      <path d="M129.64,64.31h-10.98c-.15-14.49-11.94-26.2-26.46-26.2-11.22,0-20.81,6.99-24.66,16.85V1.81c0-1-.81-1.81-1.81-1.81s-1.81,.81-1.81,1.81V10.13c-14.87,.81-26.72,13.16-26.72,28.23,0,11.61,7.03,21.6,17.06,25.95H1.81c-1,0-1.81,.81-1.81,1.81s.81,1.81,1.81,1.81H12.93c1.42,13.28,12.66,23.62,26.31,23.62,11.22,0,20.81-6.99,24.66-16.85v44.82h0v10.12c0,1,.81,1.81,1.81,1.81s1.81-.81,1.81-1.81v-10.1c14.87-.82,26.71-13.17,26.71-28.23,0-9.7-4.91-18.28-12.38-23.37h47.77c1,0,1.81-.81,1.81-1.81s-.81-1.81-1.81-1.81ZM40.81,38.36c0-13.08,10.23-23.81,23.1-24.61V62.97c-12.87-.81-23.1-11.54-23.1-24.61Zm49.81,52.94c0,13.07-10.22,23.8-23.09,24.61v-47.98h6.29c9.76,3.29,16.81,12.52,16.81,23.37Z"/>
    </symbol>

    <!-- Shape 50: triangle / mountain -->
    <symbol id="triangle" viewBox="0 0 129.38 160.5">
      <path d="M129.38,132.85L67.24,25.22V2.55c0-1.41-1.14-2.55-2.55-2.55s-2.55,1.14-2.55,2.55V25.23L0,132.85H62.13v25.1c0,1.41,1.14,2.55,2.55,2.55s2.55-1.14,2.55-2.55v-25.1h62.14Zm-8.84-5.11h-53.29V35.43l53.29,92.31Z"/>
    </symbol>

    <!-- Shape 125: vertical sigil (three circles aligned) -->
    <symbol id="sigil" viewBox="0 0 91.56 161.32">
      <circle cx="45.78" cy="80.66" r="12.46"/>
      <path d="M45.78,143.69c-4.87,0-8.81,3.95-8.81,8.81s3.95,8.81,8.81,8.81,8.81-3.95,8.81-8.81-3.95-8.81-8.81-8.81Z"/>
      <circle cx="45.78" cy="8.81" r="8.81"/>
      <path d="M45.78,34.88C20.54,34.88,0,55.42,0,80.66s20.54,45.78,45.78,45.78,45.78-20.54,45.78-45.78-20.54-45.78-45.78-45.78Zm0,88.48c-23.54,0-42.7-19.15-42.7-42.7S22.23,37.96,45.78,37.96s42.7,19.15,42.7,42.7-19.15,42.7-42.7,42.7Z"/>
    </symbol>

    <!-- Shape 38: nested squares -->
    <symbol id="squares" viewBox="0 0 102.16 102.16">
      <rect x="36.84" y="36.84" width="28.48" height="28.48"/>
      <path d="M0,0V102.16H102.16V0H0ZM98.91,98.91H3.25V3.25H98.91V98.91Z"/>
    </symbol>

    <!-- Curved path for type on path -->
    <path id="topArcPath"
          d="M 80 92 Q 306 60 532 92"
          fill="none" stroke="none"/>

    <!-- ClipPath for type mask demo (the word 2077 will be filled with pattern) -->
    <clipPath id="maskText">
      <text x="306" y="705" text-anchor="middle"
            font-family="Impact, 'Arial Black', sans-serif"
            font-size="112" font-weight="900" letter-spacing="4">2077</text>
    </clipPath>

  </defs>

  <!-- =========================================================
       LAYER 1 — Background (gradient fill)
       ========================================================= -->
  <g id="Layer_Background">
    <rect x="0" y="0" width="612" height="792" fill="url(#bgGrad)"/>
    <!-- sun glow behind hero -->
    <ellipse cx="306" cy="380" rx="340" ry="240" fill="url(#sunGlow)"/>
  </g>

  <!-- =========================================================
       LAYER 2 — Dot grid background (soft texture)
       ========================================================= -->
  <g id="Layer_DotGrid" opacity="0.8">
    <rect x="0" y="0" width="612" height="792" fill="url(#dotGrid)"/>
  </g>

  <!-- =========================================================
       LAYER 3 — Perspective Grid (synthwave floor)
       ========================================================= -->
  <g id="Layer_PerspectiveGrid">
    <!-- Horizon backlight band -->
    <rect x="0" y="520" width="612" height="80" fill="url(#horizonGrad)" opacity="0.55"/>
    <!-- Horizon horizontal lines, spacing compresses toward horizon -->
    <g stroke="#FF006E" stroke-opacity="0.55" stroke-width="0.5" fill="none">
      <line x1="0" y1="600" x2="612" y2="600"/>
      <line x1="0" y1="616" x2="612" y2="616" stroke-opacity="0.5"/>
      <line x1="0" y1="635" x2="612" y2="635" stroke-opacity="0.5"/>
      <line x1="0" y1="660" x2="612" y2="660" stroke-opacity="0.55"/>
      <line x1="0" y1="692" x2="612" y2="692" stroke-opacity="0.6"/>
      <line x1="0" y1="733" x2="612" y2="733" stroke-opacity="0.65" stroke-width="0.7"/>
      <line x1="0" y1="781" x2="612" y2="781" stroke-opacity="0.7" stroke-width="0.8"/>
    </g>
    <!-- Converging vertical grid lines to vanishing point (306, 600) -->
    <g stroke="#FF006E" stroke-opacity="0.5" stroke-width="0.5" fill="none">
      <line x1="306" y1="600" x2="-200" y2="792"/>
      <line x1="306" y1="600" x2="-40"  y2="792"/>
      <line x1="306" y1="600" x2="80"   y2="792"/>
      <line x1="306" y1="600" x2="170"  y2="792"/>
      <line x1="306" y1="600" x2="240"  y2="792"/>
      <line x1="306" y1="600" x2="306"  y2="792"/>
      <line x1="306" y1="600" x2="372"  y2="792"/>
      <line x1="306" y1="600" x2="442"  y2="792"/>
      <line x1="306" y1="600" x2="532"  y2="792"/>
      <line x1="306" y1="600" x2="652"  y2="792"/>
      <line x1="306" y1="600" x2="812"  y2="792"/>
    </g>
    <!-- Horizon line accent -->
    <line x1="0" y1="600" x2="612" y2="600" stroke="#00F0FF" stroke-width="0.8" stroke-opacity="0.9"/>
  </g>

  <!-- =========================================================
       LAYER 4 — Hero Starburst (central symbol) + orbit ring
       ========================================================= -->
  <g id="Layer_HeroStarburst">
    <!-- outer dashed ring -->
    <circle cx="306" cy="380" r="178" fill="none"
            stroke="#00F0FF" stroke-width="0.6"
            stroke-opacity="0.45"
            stroke-dasharray="2 6"/>
    <circle cx="306" cy="380" r="152" fill="none"
            stroke="#FF006E" stroke-width="0.5"
            stroke-opacity="0.55"
            stroke-dasharray="1 3"/>
    <!-- main starburst (envato shape #111) -->
    <g transform="translate(306,380)" filter="url(#softGlow)">
      <use xlink:href="#starburst"
           x="-130" y="-128" width="260" height="256"
           fill="#FF006E" fill-opacity="0.92"/>
      <!-- overlay smaller cyan copy, rotated -->
      <g transform="rotate(18)">
        <use xlink:href="#starburst"
             x="-96" y="-94" width="192" height="188"
             fill="#00F0FF" fill-opacity="0.75"/>
      </g>
      <!-- tiny white core -->
      <use xlink:href="#starburst"
           x="-48" y="-47" width="96" height="94"
           fill="#FFFFFF" fill-opacity="0.95"/>
    </g>
    <!-- tick marks around orbit -->
    <g stroke="#00F0FF" stroke-width="1" stroke-opacity="0.7">
      <line x1="306" y1="196" x2="306" y2="208"/>
      <line x1="306" y1="552" x2="306" y2="564"/>
      <line x1="122" y1="380" x2="134" y2="380"/>
      <line x1="478" y1="380" x2="490" y2="380"/>
    </g>
  </g>

  <!-- =========================================================
       LAYER 5 — Orbiting Decorative Shapes
       ========================================================= -->
  <g id="Layer_OrbitingShapes">
    <!-- Top right: arrow/infinity -->
    <use xlink:href="#shape75" x="484" y="188" width="42" height="42"
         fill="#00F0FF" opacity="0.9"/>
    <!-- Bottom left: triangle -->
    <use xlink:href="#triangle" x="88" y="500" width="30" height="38"
         fill="#FF006E" opacity="0.9"/>
    <!-- Bottom right: nested squares -->
    <use xlink:href="#squares" x="500" y="512" width="32" height="32"
         fill="#00F0FF" opacity="0.85"/>
    <!-- Top left mini starburst -->
    <use xlink:href="#starburst" x="60" y="172" width="36" height="35"
         fill="#FF006E" opacity="0.9"/>
  </g>

  <!-- =========================================================
       LAYER 6 — Left Vertical Kanji-style Accent Column
       (column of three 'sigil' shapes + tech stats)
       ========================================================= -->
  <g id="Layer_SideAccentLeft">
    <!-- thin vertical cyan line -->
    <line x1="44" y1="220" x2="44" y2="560"
          stroke="#00F0FF" stroke-width="0.8" stroke-opacity="0.6"/>
    <!-- dashes along the line -->
    <line x1="44" y1="220" x2="44" y2="560"
          stroke="#00F0FF" stroke-width="2" stroke-opacity="0.4"
          stroke-dasharray="1 12"/>
    <!-- three sigil shapes stacked -->
    <use xlink:href="#sigil" x="30" y="230" width="28" height="50" fill="#00F0FF" opacity="0.85"/>
    <use xlink:href="#sigil" x="30" y="360" width="28" height="50" fill="#FF006E" opacity="0.85"/>
    <use xlink:href="#sigil" x="30" y="490" width="28" height="50" fill="#00F0FF" opacity="0.85"/>
    <!-- vertical tech stat ticker -->
    <g font-family="'Courier New', monospace" font-size="6" fill="#00F0FF" fill-opacity="0.8">
      <text x="44" y="296" text-anchor="middle" transform="rotate(-90 44 296)">TX.0x7A9F3B.00</text>
      <text x="44" y="426" text-anchor="middle" transform="rotate(-90 44 426)">GRID.47.3°N/139.7°E</text>
      <text x="44" y="556" text-anchor="middle" transform="rotate(-90 44 556)">SIG.////.ON.AIR</text>
    </g>
  </g>

  <!-- =========================================================
       LAYER 7 — Top-right HUD Corner (tech readout)
       ========================================================= -->
  <g id="Layer_HUDTopRight">
    <g stroke="#00F0FF" stroke-width="0.8" fill="none" opacity="0.85">
      <!-- bracket corner -->
      <polyline points="492,44 568,44 568,112"/>
      <!-- micro ticks -->
      <line x1="500" y1="44" x2="500" y2="50"/>
      <line x1="520" y1="44" x2="520" y2="48"/>
      <line x1="540" y1="44" x2="540" y2="50"/>
      <line x1="568" y1="60"  x2="562" y2="60"/>
      <line x1="568" y1="80"  x2="564" y2="80"/>
      <line x1="568" y1="100" x2="562" y2="100"/>
    </g>
    <g font-family="'Courier New', monospace" font-size="6" fill="#00F0FF" fill-opacity="0.95">
      <text x="500" y="60">REC ●</text>
      <text x="500" y="72">11.17.2077</text>
      <text x="500" y="84">19:00 JST</text>
      <text x="500" y="96">ADMIT.ALL</text>
      <text x="500" y="108">▓▓▓░░ 65%</text>
    </g>
  </g>

  <!-- =========================================================
       LAYER 8 — Top-left Admission Stamp
       ========================================================= -->
  <g id="Layer_StampTopLeft">
    <rect x="44" y="44" width="92" height="18" fill="none"
          stroke="#FF006E" stroke-width="0.8" opacity="0.95"/>
    <text x="90" y="57" text-anchor="middle"
          font-family="'Courier New', monospace" font-size="8"
          fill="#FF006E" letter-spacing="2">/ SECTOR·7·PASS /</text>
  </g>

  <!-- =========================================================
       LAYER 9 — Type on Path (curved headline above title)
       ========================================================= -->
  <g id="Layer_TypeOnPath">
    <use xlink:href="#topArcPath"/>
    <text font-family="'Courier New', monospace" font-size="9"
          fill="#00F0FF" letter-spacing="5">
      <textPath xlink:href="#topArcPath" startOffset="50%" text-anchor="middle">
        CURATED SELECTIONS · POST-DIGITAL VISUAL ART · EST. 2077
      </textPath>
    </text>
  </g>

  <!-- =========================================================
       LAYER 10 — Main Title  "NEO//GENESIS"  (point type + RGB glitch)
       ========================================================= -->
  <g id="Layer_MainTitle">
    <!-- RGB split: pink shadow offset right, cyan shadow offset left, white on top -->
    <g font-family="Impact, 'Arial Black', sans-serif"
       font-size="96" font-weight="900"
       text-anchor="middle" letter-spacing="-2">
      <!-- magenta offset -->
      <text x="309" y="192" fill="#FF006E" opacity="0.85">NEO//</text>
      <!-- cyan offset -->
      <text x="303" y="192" fill="#00F0FF" opacity="0.8">NEO//</text>
      <!-- white master -->
      <text x="306" y="192" fill="#FFFFFF" filter="url(#neonGlow)">NEO//</text>
    </g>
    <g font-family="Impact, 'Arial Black', sans-serif"
       font-size="112" font-weight="900"
       text-anchor="middle" letter-spacing="-3">
      <text x="310" y="286" fill="#FF006E" opacity="0.85">GENESIS</text>
      <text x="302" y="286" fill="#00F0FF" opacity="0.8">GENESIS</text>
      <text x="306" y="286" fill="url(#neonGrad)" filter="url(#neonGlow)">GENESIS</text>
    </g>
  </g>

  <!-- =========================================================
       LAYER 11 — Subtitle  "CYBER ART EXPO · 2077"
       ========================================================= -->
  <g id="Layer_Subtitle">
    <line x1="120" y1="318" x2="260" y2="318" stroke="#FFFFFF" stroke-width="0.8" opacity="0.85"/>
    <line x1="352" y1="318" x2="492" y2="318" stroke="#FFFFFF" stroke-width="0.8" opacity="0.85"/>
    <text x="306" y="322" text-anchor="middle"
          font-family="'Courier New', monospace"
          font-size="13" fill="#FFFFFF" letter-spacing="6">
      CYBER · ART · EXPO
    </text>
  </g>

  <!-- =========================================================
       LAYER 12 — Type Mask ("2077" filled with icon pattern)
       assignment: demonstrate type mask technique
       ========================================================= -->
  <g id="Layer_TypeMask">
    <!-- fill rect clipped by text shape -->
    <rect x="130" y="620" width="352" height="100"
          fill="url(#iconPattern)"
          clip-path="url(#maskText)"/>
    <!-- outline of the same text so it reads -->
    <text x="306" y="705" text-anchor="middle"
          font-family="Impact, 'Arial Black', sans-serif"
          font-size="112" font-weight="900" letter-spacing="4"
          fill="none" stroke="#00F0FF" stroke-width="1.2" opacity="0.95">
      2077
    </text>
    <!-- small caption -->
    <text x="306" y="720" text-anchor="middle"
          font-family="'Courier New', monospace" font-size="8"
          fill="#FF006E" letter-spacing="4">
      · THE FUTURE IS ALREADY HERE ·
    </text>
  </g>

  <!-- =========================================================
       LAYER 13 — Event Details (area type block)
       ========================================================= -->
  <g id="Layer_EventDetails">
    <!-- section divider -->
    <line x1="44"  y1="540" x2="146" y2="540" stroke="#00F0FF" stroke-width="0.6" opacity="0.85"/>
    <line x1="466" y1="540" x2="568" y2="540" stroke="#00F0FF" stroke-width="0.6" opacity="0.85"/>
    <text x="306" y="544" text-anchor="middle"
          font-family="'Courier New', monospace" font-size="8"
          fill="#00F0FF" letter-spacing="5">· TRANSMISSION LOG ·</text>

    <!-- Left column -->
    <g font-family="'Courier New', monospace" font-size="8.5" fill="#FFFFFF">
      <text x="70" y="570" fill="#FF006E" letter-spacing="1">RUN</text>
      <text x="70" y="582" letter-spacing="0.5">11·17 — 12·03 / 2077</text>
      <text x="70" y="600" fill="#FF006E" letter-spacing="1">OPENING</text>
      <text x="70" y="612" letter-spacing="0.5">NOV·17·FRI / 19:00</text>
    </g>
    <!-- Right column -->
    <g font-family="'Courier New', monospace" font-size="8.5" fill="#FFFFFF" text-anchor="end">
      <text x="542" y="570" fill="#FF006E" letter-spacing="1">VENUE</text>
      <text x="542" y="582" letter-spacing="0.5">DIGITAL HORIZONS GAL.</text>
      <text x="542" y="600" fill="#FF006E" letter-spacing="1">LOC</text>
      <text x="542" y="612" letter-spacing="0.5">SECTOR·7 / NEO-TOKYO</text>
    </g>
  </g>

  <!-- =========================================================
       LAYER 14 — Footer (credits + glyph marks)
       ========================================================= -->
  <g id="Layer_Footer">
    <!-- top rule -->
    <line x1="44" y1="748" x2="568" y2="748" stroke="#FFFFFF" stroke-width="0.4" opacity="0.4"/>
    <text x="44" y="762"
          font-family="'Courier New', monospace" font-size="7"
          fill="#FFFFFF" opacity="0.85" letter-spacing="2">
      CURATED BY  SIGNAL△NOISE COLLECTIVE
    </text>
    <text x="568" y="762" text-anchor="end"
          font-family="'Courier New', monospace" font-size="7"
          fill="#FFFFFF" opacity="0.85" letter-spacing="2">
      VOL · 07 / ISSUE · 2077
    </text>
    <!-- small marks in footer -->
    <use xlink:href="#triangle" x="44" y="772" width="6" height="8" fill="#FF006E"/>
    <use xlink:href="#squares"  x="300" y="772" width="8" height="8" fill="#00F0FF"/>
    <use xlink:href="#triangle" x="562" y="772" width="6" height="8" fill="#FF006E"/>
  </g>

  <!-- =========================================================
       LAYER 15 — Scanlines overlay (top of stack, very subtle)
       ========================================================= -->
  <g id="Layer_Scanlines" style="mix-blend-mode:screen">
    <rect x="0" y="0" width="612" height="792" fill="url(#scanlines)"/>
  </g>

  <!-- =========================================================
       LAYER 16 — Edge vignette + registration marks
       ========================================================= -->
  <g id="Layer_EdgeMarks">
    <!-- registration crosshair top left -->
    <g stroke="#00F0FF" stroke-width="0.6" opacity="0.7">
      <line x1="18" y1="26" x2="30" y2="26"/>
      <line x1="24" y1="20" x2="24" y2="32"/>
      <circle cx="24" cy="26" r="3" fill="none"/>
    </g>
    <!-- top right -->
    <g stroke="#00F0FF" stroke-width="0.6" opacity="0.7">
      <line x1="582" y1="26" x2="594" y2="26"/>
      <line x1="588" y1="20" x2="588" y2="32"/>
      <circle cx="588" cy="26" r="3" fill="none"/>
    </g>
    <!-- bottom left -->
    <g stroke="#FF006E" stroke-width="0.6" opacity="0.7">
      <line x1="18" y1="766" x2="30" y2="766"/>
      <line x1="24" y1="760" x2="24" y2="772"/>
    </g>
    <!-- bottom right -->
    <g stroke="#FF006E" stroke-width="0.6" opacity="0.7">
      <line x1="582" y1="766" x2="594" y2="766"/>
      <line x1="588" y1="760" x2="588" y2="772"/>
    </g>
  </g>

</svg>
