<?xml version="1.0" encoding="UTF-8"?>
<!-- ================================================================
  POSTER 2 — ART THEME
  "AFTER THE MACHINE" — fictional exhibition at Tate Modern
  Art in the age of synthetic authorship
  612 × 888 (same vertical poster format as Arrakis for series unity)

  Style profile : style-profiles/peter-saville.md
  Trend         : docs/trends-2026.md § Neo-Futurism / Spatial UI

  Why this combo:
  - Saville's DNA (appropriated classical imagery as hero, minimal type,
    generous margins, Factory catalog numbering) is already the template
    for "thinking-object" cultural-institution posters.
  - Neo-Futurism / Spatial UI adds frosted-glass depth + iridescent
    accent — the 2026 Vision-Pro finish that re-anchors Saville's
    quiet sophistication into the current moment.

  Saville rules enforced:
    - Appropriated classical image as visual hero (painted hand)
    - Generous margins (~70px each side)
    - Type minimal + small + classical serif
    - Centered / classical composition
    - Factory-style serial catalog number (FAC·T·2026·047)
    - Muted oil palette from source artifact

  Neo-Futurism rules enforced:
    - Frosted glass card on blurred backdrop
    - Multi-layer drop shadow on card (depth)
    - Monochrome base + ONE iridescent accent mark
    - Ultra-clean grotesk alongside classical serif (hybrid typo)
    - Soft specular highlight on glass
    - Rounded card corners (24px)

  ─── GRID PLAN ──────────────────────────────────────────
  Outer frame: y=28 → y=860
  Content margins: x=70 left, x=542 right (472 usable)

  Vertical zones (no surprises, all pre-measured):
    y=56   — institution mark L  |  catalog № R
    y=100  — hero image top
    y=540  — hero image bottom (440px painting zone)
    y=552  — frosted glass card top
    y=716  — frosted glass card bottom (164px card height)
    y=748  — curator line
    y=770  — rule separator
    y=790  — closing serial / copyright
    y=820  — footer
    y=860  — frame bottom
  ─────────────────────────────────────────────────────────
================================================================= -->
<svg xmlns="http://www.w3.org/2000/svg"
     width="612" height="888" viewBox="0 0 612 888"
     preserveAspectRatio="xMidYMid meet">

  <defs>
    <!-- Bone ground with faint warm-cool variance -->
    <linearGradient id="bone" x1="0" y1="0" x2="1" y2="1">
      <stop offset="0"   stop-color="#F3EEE4"/>
      <stop offset="0.5" stop-color="#EEE8DC"/>
      <stop offset="1"   stop-color="#E8E2D4"/>
    </linearGradient>

    <!-- Classical painting ghost gradient (Saville muted oils) -->
    <radialGradient id="paintingGhost" cx="0.5" cy="0.42" r="0.68">
      <stop offset="0"    stop-color="#9C6144" stop-opacity="0.95"/>
      <stop offset="0.35" stop-color="#6B3E2A" stop-opacity="0.85"/>
      <stop offset="0.6"  stop-color="#3F2A20" stop-opacity="0.75"/>
      <stop offset="1"    stop-color="#1A120A" stop-opacity="0.5"/>
    </radialGradient>

    <!-- Amber highlight (hand emerging from dark — Caravaggio-ish) -->
    <radialGradient id="handLight" cx="0.5" cy="0.45" r="0.4">
      <stop offset="0"   stop-color="#E8C78A" stop-opacity="0.95"/>
      <stop offset="0.4" stop-color="#C09056" stop-opacity="0.7"/>
      <stop offset="0.8" stop-color="#7A4E2C" stop-opacity="0.3"/>
      <stop offset="1"   stop-color="#000000" stop-opacity="0"/>
    </radialGradient>

    <!-- Frosted glass card fill (nearly-opaque white over blurred backdrop) -->
    <linearGradient id="glassFill" x1="0" y1="0" x2="0" y2="1">
      <stop offset="0"   stop-color="#FCFAF4" stop-opacity="0.96"/>
      <stop offset="1"   stop-color="#F0ECDE" stop-opacity="0.93"/>
    </linearGradient>

    <!-- Glass specular highlight (top-edge sheen) -->
    <linearGradient id="glassSheen" x1="0" y1="0" x2="0" y2="1">
      <stop offset="0"   stop-color="#FFFFFF" stop-opacity="0.7"/>
      <stop offset="0.25" stop-color="#FFFFFF" stop-opacity="0.12"/>
      <stop offset="0.7" stop-color="#FFFFFF" stop-opacity="0"/>
      <stop offset="1"   stop-color="#000000" stop-opacity="0.04"/>
    </linearGradient>

    <!-- Iridescent mark (Neo-Futurism accent: magenta → cyan → gold) -->
    <linearGradient id="iridescent" x1="0" y1="0" x2="1" y2="1">
      <stop offset="0"    stop-color="#F72585"/>
      <stop offset="0.35" stop-color="#9A4DFF"/>
      <stop offset="0.65" stop-color="#2EFFF0"/>
      <stop offset="1"    stop-color="#FEE440"/>
    </linearGradient>

    <!-- Card drop shadow (soft, multi-layer depth) -->
    <filter id="softShadow" x="-10%" y="-10%" width="120%" height="130%">
      <feGaussianBlur stdDeviation="6"/>
      <feOffset dx="0" dy="4"/>
      <feComponentTransfer>
        <feFuncA type="linear" slope="0.25"/>
      </feComponentTransfer>
      <feComposite in2="SourceGraphic" operator="in"/>
    </filter>

    <!-- Painting canvas texture -->
    <filter id="canvasGrain">
      <feTurbulence type="fractalNoise" baseFrequency="0.85" numOctaves="2" seed="14"/>
      <feColorMatrix values="0 0 0 0 0.06
                             0 0 0 0 0.05
                             0 0 0 0 0.03
                             0 0 0 0.15 0"/>
    </filter>

    <!-- Paper grain (subtle, for poster surface) -->
    <filter id="paperMicrograin">
      <feTurbulence type="fractalNoise" baseFrequency="1.1" numOctaves="1" seed="7"/>
      <feColorMatrix values="0 0 0 0 0.1
                             0 0 0 0 0.08
                             0 0 0 0 0.05
                             0 0 0 0.1 0"/>
    </filter>

    <!-- Clip for hero image area -->
    <clipPath id="heroClip">
      <rect x="70" y="100" width="472" height="440"/>
    </clipPath>
  </defs>

  <!-- ════════ PAPER GROUND ════════════════════════════════ -->
  <rect width="612" height="888" fill="url(#bone)"/>

  <!-- ════════ OUTER FRAME (Saville: precise, minimal) ═════
       Single thin rule — no ornamental decoration.
       Saville would keep this clean; no fleurons, no double rule.
  ══════════════════════════════════════════════════════════ -->
  <rect x="28" y="28" width="556" height="832" fill="none" stroke="#1A1A1A" stroke-width="0.8"/>

  <!-- ════════ TOP INSTITUTION LINE (y=56) ══════════════════ -->
  <g font-family="Helvetica, 'Helvetica Neue', Arial, sans-serif" fill="#1A1A1A">
    <text x="70" y="56" font-size="10" letter-spacing="4" font-weight="700">TATE · MODERN</text>
    <text x="542" y="56" font-size="10" letter-spacing="4" font-weight="400" text-anchor="end">FAC·T·2026·047</text>
  </g>
  <!-- thin hairline under institution line -->
  <line x1="70" y1="68" x2="542" y2="68" stroke="#1A1A1A" stroke-width="0.5"/>
  <line x1="70" y1="72" x2="542" y2="72" stroke="#1A1A1A" stroke-width="0.2"/>

  <!-- ════════ HERO: APPROPRIATED CLASSICAL IMAGE ═════════
       A painted hand emerging from dark ground.
       References: Michelangelo's Creation of Adam fingertip,
       Caravaggio's dramatic chiaroscuro lighting. The hand
       dissolves into pixelated fragments at the fingertips —
       the "machine" creeping into the human gesture.
       Rendered in Saville's muted-oils register.
  ──────────────────────────────────────────────────────── -->
  <g clip-path="url(#heroClip)">

    <!-- Deep painted ground (Caravaggio darkness) -->
    <rect x="70" y="100" width="472" height="440" fill="#1A120A"/>

    <!-- Classical painting ghost: radial emanation of painted warmth -->
    <rect x="70" y="100" width="472" height="440" fill="url(#paintingGhost)"/>

    <!-- Hand light pool (centered on the gesture) -->
    <ellipse cx="306" cy="300" rx="170" ry="140" fill="url(#handLight)"/>

    <!-- THE HAND (abstract painted form, Creation-of-Adam flavour) ─
         Simplified painterly shape: forearm emerging from lower-left,
         reaching upward and to the right. Fingers extending.
         Built from layered painterly curves. -->
    <g>
      <!-- forearm mass (muted oil burnt sienna) -->
      <path d="M 120,480
               C 140,430 175,380 215,340
               C 250,305 290,285 330,280
               C 360,278 386,285 400,300
               C 410,312 405,326 386,332
               C 360,338 330,336 300,346
               C 270,356 240,374 215,398
               C 188,424 158,452 130,485
               Z"
            fill="#8C5636" opacity="0.88"/>

      <!-- highlight on forearm (amber light on top side) -->
      <path d="M 170,410
               C 210,370 250,340 290,322
               C 320,310 348,308 370,312
               C 385,316 388,323 378,328
               C 360,334 336,334 310,340
               C 280,348 252,362 228,380
               C 208,395 190,410 175,426 Z"
            fill="#D4A366" opacity="0.7"/>

      <!-- fingers (pointing up-right from hand) -->
      <!-- index finger -->
      <path d="M 378,315 C 395,308 412,295 428,275 C 438,265 445,258 452,255 C 458,253 460,258 456,265 C 448,280 438,295 424,310 C 410,325 395,335 384,340 Z"
            fill="#A0633C" opacity="0.85"/>
      <!-- middle finger -->
      <path d="M 370,325 C 380,315 390,305 395,293 C 398,285 402,282 404,287 C 404,294 398,308 390,320 C 384,328 376,334 370,337 Z"
            fill="#90583A" opacity="0.82"/>
      <!-- thumb hint -->
      <path d="M 355,345 C 340,346 325,352 312,362 C 305,367 300,372 302,375 C 308,377 320,374 332,368 C 345,361 354,354 358,349 Z"
            fill="#7A4A30" opacity="0.78"/>

      <!-- fingertip — DISSOLVES INTO PIXELS (the "machine" concept) -->
      <g opacity="0.9">
        <rect x="450" y="252" width="4" height="4" fill="#E8C78A"/>
        <rect x="456" y="248" width="3" height="3" fill="#D4A366"/>
        <rect x="461" y="254" width="3" height="3" fill="#B88554"/>
        <rect x="466" y="249" width="2" height="2" fill="#A0633C"/>
        <rect x="470" y="253" width="3" height="3" fill="#C09056"/>
        <rect x="474" y="247" width="2" height="2" fill="#E8C78A"/>
        <rect x="478" y="252" width="2" height="2" fill="#D4A366"/>
        <rect x="482" y="250" width="1.5" height="1.5" fill="#B88554"/>
        <rect x="485" y="253" width="1.5" height="1.5" fill="#A0633C"/>
        <rect x="488" y="251" width="1" height="1" fill="#C09056"/>
        <rect x="491" y="253" width="1" height="1" fill="#8C5636"/>
        <rect x="494" y="252" width="1" height="1" fill="#8C5636" opacity="0.6"/>

        <rect x="400" y="285" width="3" height="3" fill="#D4A366" opacity="0.85"/>
        <rect x="408" y="278" width="2" height="2" fill="#B88554" opacity="0.75"/>
        <rect x="416" y="290" width="2" height="2" fill="#A0633C" opacity="0.7"/>
        <rect x="425" y="282" width="2" height="2" fill="#C09056" opacity="0.65"/>
      </g>

      <!-- Painterly brush strokes (visible technique, Saville: appropriated art) -->
      <g stroke="#4A2A1A" stroke-width="0.8" fill="none" opacity="0.35">
        <path d="M 160,450 C 180,420 210,390 240,370"/>
        <path d="M 200,440 C 225,410 260,380 295,362"/>
        <path d="M 260,420 C 285,395 315,370 345,355"/>
      </g>

      <!-- Highlight brush touches -->
      <g stroke="#E8C78A" stroke-width="0.6" fill="none" opacity="0.5">
        <path d="M 220,380 C 245,360 270,345 295,336"/>
        <path d="M 280,350 C 305,338 330,330 355,326"/>
      </g>
    </g>

    <!-- Painting canvas texture over hero -->
    <rect x="70" y="100" width="472" height="440" filter="url(#canvasGrain)" opacity="0.5"/>

    <!-- Subtle vignette darkening at corners (classical oil framing) -->
    <radialGradient id="vignette" cx="0.5" cy="0.5" r="0.7">
      <stop offset="0.6" stop-color="#000000" stop-opacity="0"/>
      <stop offset="1"   stop-color="#000000" stop-opacity="0.5"/>
    </radialGradient>
    <rect x="70" y="100" width="472" height="440" fill="url(#vignette)"/>
  </g>

  <!-- Thin frame around hero image (Saville precision) -->
  <rect x="70" y="100" width="472" height="440" fill="none" stroke="#1A1A1A" stroke-width="0.8"/>

  <!-- ════════ FROSTED GLASS CARD (Neo-Futurism) ═══════════
       Rounded 24px card, centered, containing title + metadata.
       Sits partially over the hero image for depth.
  ══════════════════════════════════════════════════════════ -->

  <!-- Soft shadow layer beneath card (multi-layer for depth) -->
  <rect x="96" y="570" width="420" height="150" rx="24" fill="#000000" opacity="0.12"/>
  <rect x="96" y="566" width="420" height="150" rx="24" fill="#000000" opacity="0.06"/>

  <!-- Frosted glass card body -->
  <rect x="96" y="556" width="420" height="160" rx="24" fill="url(#glassFill)" stroke="#FFFFFF" stroke-width="1.2" stroke-opacity="0.7"/>

  <!-- Specular highlight (top edge sheen) -->
  <rect x="96" y="556" width="420" height="160" rx="24" fill="url(#glassSheen)"/>

  <!-- Thin accent rule inside card -->
  <line x1="118" y1="588" x2="494" y2="588" stroke="#1A1A1A" stroke-width="0.3" opacity="0.4"/>

  <!-- ── Iridescent accent mark (Neo-Futurism) ─────────────
       Small circle top-left of card. "Exhibition open" status.
  ──────────────────────────────────────────────────────── -->
  <circle cx="130" cy="578" r="6" fill="url(#iridescent)"/>
  <circle cx="130" cy="578" r="6" fill="none" stroke="#FFFFFF" stroke-width="0.6" opacity="0.6"/>

  <!-- Small status label next to iridescent mark -->
  <text x="144" y="581" font-family="Helvetica, Arial, sans-serif" font-size="8" letter-spacing="2.5" font-weight="700" fill="#1A1A1A">
    NOW OPEN — TURBINE HALL
  </text>

  <!-- Section number top-right of card -->
  <text x="494" y="581" font-family="Helvetica, Arial, sans-serif" font-size="8" letter-spacing="2" fill="#5A5A5A" text-anchor="end">
    SECTION I · THE GESTURE
  </text>

  <!-- ── Title in classical serif (Saville: Bodoni/Didot flavor) ─
       Two-line composition, centered in card.
  ──────────────────────────────────────────────────────── -->
  <g text-anchor="middle" font-family="Georgia, 'Times New Roman', 'Bodoni 72', serif">
    <text x="306" y="628" font-size="30" font-weight="400" fill="#1A1A1A" letter-spacing="2">AFTER THE MACHINE</text>
    <text x="306" y="653" font-size="13" font-style="italic" fill="#5A5A5A" letter-spacing="1">art in the age of synthetic authorship</text>
  </g>

  <!-- Bottom-of-card meta row: dates + curators -->
  <line x1="118" y1="672" x2="494" y2="672" stroke="#1A1A1A" stroke-width="0.3" opacity="0.4"/>
  <g font-family="Helvetica, Arial, sans-serif" fill="#1A1A1A">
    <text x="118" y="692" font-size="9" letter-spacing="2" font-weight="700">17 JAN — 29 AUG 2026</text>
    <text x="494" y="692" font-size="9" letter-spacing="2" text-anchor="end" fill="#5A5A5A">12 ROOMS · 47 ARTISTS</text>
  </g>
  <g font-family="Georgia, 'Times New Roman', serif" fill="#5A5A5A" font-style="italic">
    <text x="118" y="706" font-size="8.5">curated by M. Abramović &amp; R. Anadol</text>
    <text x="494" y="706" font-size="8.5" text-anchor="end">three generations, one question</text>
  </g>

  <!-- ════════ BELOW CARD — BREATHING SPACE + FOOTER ═══════ -->

  <!-- Thin rule separating card zone from footer -->
  <line x1="70" y1="770" x2="542" y2="770" stroke="#1A1A1A" stroke-width="0.3"/>

  <!-- Exhibition program notes (small serif, Saville minimalism) -->
  <g font-family="Georgia, 'Times New Roman', serif" fill="#1A1A1A" text-anchor="middle">
    <text x="306" y="792" font-size="11" font-style="italic">
      "What does it mean to make a mark when the hand is no longer required?"
    </text>
  </g>

  <!-- Footer institution + catalog -->
  <g font-family="Helvetica, Arial, sans-serif" fill="#1A1A1A">
    <text x="70" y="830" font-size="8" letter-spacing="3" font-weight="700">TATE · MODERN · BANKSIDE · LONDON SE1</text>
    <text x="542" y="830" font-size="8" letter-spacing="3" text-anchor="end">tate.org.uk/after-the-machine</text>
  </g>

  <!-- Hairline above catalog number -->
  <line x1="70" y1="842" x2="542" y2="842" stroke="#1A1A1A" stroke-width="0.2"/>

  <!-- Catalog serial bottom (Factory DNA) -->
  <g font-family="Helvetica, Arial, sans-serif" fill="#5A5A5A">
    <text x="70" y="854" font-size="6.5" letter-spacing="1.5">CATALOG №  FAC·T·2026·047  ·  PRINTED ON RECYCLED MUNKEN PURE  ·  MMXXVI</text>
    <text x="542" y="854" font-size="6.5" letter-spacing="1.5" text-anchor="end">EDITION 1 / 3</text>
  </g>

  <!-- ════════ GLOBAL MICRO-GRAIN (very subtle) ════════════ -->
  <rect x="0" y="0" width="612" height="888" filter="url(#paperMicrograin)" opacity="0.18"/>
</svg>
